<svg xmlns="http://www.w3.org/2000/svg" viewBox="0 0 640 360"><rect width="640" height="360" fill="#08243b"/><path d="M0 280h640v80H0z" fill="#0e5360"/><g stroke="#1b7180" opacity=".5"><path d="M0 280 320 110l320 170M80 360l240-250 240 250M0 320h640"/></g><circle cx="510" cy="100" r="38" fill="none" stroke="#43e2bd" stroke-width="10"/><g transform="translate(220 92)"><rect x="0" y="50" width="180" height="145" rx="35" fill="#bde7ee" stroke="#fff" stroke-width="8"/><rect x="42" y="0" width="96" height="76" rx="26" fill="#dff8fa" stroke="#fff" stroke-width="8"/><circle cx="72" cy="35" r="9" fill="#08243b"/><circle cx="108" cy="35" r="9" fill="#08243b"/><path d="M70 58h40" stroke="#089b89" stroke-width="8" stroke-linecap="round"/><path d="M90 0v-25" stroke="#bde7ee" stroke-width="8"/><circle cx="90" cy="-31" r="11" fill="#43e2bd"/><path d="M0 100h-40M180 100h40" stroke="#bde7ee" stroke-width="22" stroke-linecap="round"/><circle cx="45" cy="205" r="28" fill="#07182a"/><circle cx="135" cy="205" r="28" fill="#07182a"/></g></svg>
